<mxfile host="app.diagrams.net" modified="2022-05-26T20:00:14.754Z" agent="5.0 (Macintosh; Intel Mac OS X 10_15_7) AppleWebKit/537.36 (KHTML, like Gecko) Chrome/101.0.4951.64 Safari/537.36" etag="LjQC1hb0SyM5BruZQ0O7" version="16.5.6" type="github">
  <diagram id="HEar5sA1GaKiPcR0g2SL" name="Use-case">
    <mxGraphModel dx="1165" dy="683" grid="1" gridSize="10" guides="1" tooltips="1" connect="1" arrows="1" fold="1" page="1" pageScale="1" pageWidth="850" pageHeight="1100" math="0" shadow="0">
      <root>
        <mxCell id="0" />
        <mxCell id="1" parent="0" />
        <mxCell id="7OE0ms06HwQbtnijEo_u-57" value="" style="rounded=0;whiteSpace=wrap;html=1;fillColor=default;" vertex="1" parent="1">
          <mxGeometry x="200" y="150" width="410" height="620" as="geometry" />
        </mxCell>
        <mxCell id="7OE0ms06HwQbtnijEo_u-13" value="" style="rounded=0;orthogonalLoop=1;jettySize=auto;html=1;entryX=0;entryY=0.5;entryDx=0;entryDy=0;endArrow=none;endFill=0;" edge="1" parent="1" source="7OE0ms06HwQbtnijEo_u-5" target="7OE0ms06HwQbtnijEo_u-10">
          <mxGeometry relative="1" as="geometry">
            <mxPoint x="220" y="180" as="targetPoint" />
          </mxGeometry>
        </mxCell>
        <mxCell id="7OE0ms06HwQbtnijEo_u-20" value="" style="edgeStyle=none;rounded=0;orthogonalLoop=1;jettySize=auto;html=1;endArrow=none;endFill=0;" edge="1" parent="1" source="7OE0ms06HwQbtnijEo_u-5" target="7OE0ms06HwQbtnijEo_u-18">
          <mxGeometry relative="1" as="geometry">
            <mxPoint x="220" y="180" as="targetPoint" />
          </mxGeometry>
        </mxCell>
        <mxCell id="7OE0ms06HwQbtnijEo_u-30" value="" style="edgeStyle=none;rounded=0;orthogonalLoop=1;jettySize=auto;html=1;endArrow=none;endFill=0;entryX=0;entryY=0.5;entryDx=0;entryDy=0;" edge="1" parent="1" source="7OE0ms06HwQbtnijEo_u-5" target="7OE0ms06HwQbtnijEo_u-26">
          <mxGeometry relative="1" as="geometry">
            <mxPoint x="220" y="180" as="targetPoint" />
          </mxGeometry>
        </mxCell>
        <mxCell id="7OE0ms06HwQbtnijEo_u-5" value="Utente" style="shape=umlActor;verticalLabelPosition=bottom;verticalAlign=top;html=1;outlineConnect=0;fillColor=none;" vertex="1" parent="1">
          <mxGeometry x="100" y="380" width="30" height="60" as="geometry" />
        </mxCell>
        <mxCell id="7OE0ms06HwQbtnijEo_u-17" value="" style="edgeStyle=none;rounded=0;orthogonalLoop=1;jettySize=auto;html=1;endArrow=none;endFill=0;exitX=1;exitY=0.5;exitDx=0;exitDy=0;" edge="1" parent="1" source="7OE0ms06HwQbtnijEo_u-10" target="7OE0ms06HwQbtnijEo_u-14">
          <mxGeometry relative="1" as="geometry">
            <mxPoint x="450" y="95" as="targetPoint" />
          </mxGeometry>
        </mxCell>
        <mxCell id="7OE0ms06HwQbtnijEo_u-10" value="Login" style="ellipse;whiteSpace=wrap;html=1;fillColor=default;" vertex="1" parent="1">
          <mxGeometry x="320" y="170" width="100" height="50" as="geometry" />
        </mxCell>
        <mxCell id="7OE0ms06HwQbtnijEo_u-14" value="Authentication&lt;br&gt;(Identity Provider)&lt;br&gt;&amp;lt;&amp;lt;service&amp;gt;&amp;gt;" style="shape=umlActor;verticalLabelPosition=bottom;verticalAlign=top;html=1;outlineConnect=0;fillColor=none;" vertex="1" parent="1">
          <mxGeometry x="670" y="380" width="30" height="60" as="geometry" />
        </mxCell>
        <mxCell id="7OE0ms06HwQbtnijEo_u-18" value="Ricerca&lt;br&gt;&amp;nbsp;Documento" style="ellipse;whiteSpace=wrap;html=1;fillColor=default;" vertex="1" parent="1">
          <mxGeometry x="220" y="360" width="110" height="60" as="geometry" />
        </mxCell>
        <mxCell id="7OE0ms06HwQbtnijEo_u-22" value="" style="edgeStyle=none;rounded=0;orthogonalLoop=1;jettySize=auto;html=1;endArrow=classic;endFill=1;dashed=1;" edge="1" parent="1" source="7OE0ms06HwQbtnijEo_u-21" target="7OE0ms06HwQbtnijEo_u-18">
          <mxGeometry relative="1" as="geometry" />
        </mxCell>
        <mxCell id="7OE0ms06HwQbtnijEo_u-25" value="" style="edgeStyle=none;rounded=0;orthogonalLoop=1;jettySize=auto;html=1;endArrow=none;endFill=0;" edge="1" parent="1" source="7OE0ms06HwQbtnijEo_u-21" target="7OE0ms06HwQbtnijEo_u-14">
          <mxGeometry relative="1" as="geometry">
            <mxPoint x="555" y="170" as="targetPoint" />
          </mxGeometry>
        </mxCell>
        <mxCell id="7OE0ms06HwQbtnijEo_u-56" value="" style="edgeStyle=none;rounded=0;orthogonalLoop=1;jettySize=auto;html=1;startArrow=none;startFill=0;endArrow=none;endFill=0;" edge="1" parent="1" source="7OE0ms06HwQbtnijEo_u-21" target="7OE0ms06HwQbtnijEo_u-52">
          <mxGeometry relative="1" as="geometry">
            <mxPoint x="530" y="270" as="targetPoint" />
          </mxGeometry>
        </mxCell>
        <mxCell id="7OE0ms06HwQbtnijEo_u-21" value="Visualizzazione Documento" style="ellipse;whiteSpace=wrap;html=1;fillColor=default;" vertex="1" parent="1">
          <mxGeometry x="340" y="240" width="110" height="60" as="geometry" />
        </mxCell>
        <mxCell id="7OE0ms06HwQbtnijEo_u-23" value="&amp;lt;&amp;lt; include &amp;gt;&amp;gt;" style="text;html=1;align=center;verticalAlign=middle;resizable=0;points=[];autosize=1;strokeColor=none;fillColor=none;" vertex="1" parent="1">
          <mxGeometry x="240" y="320" width="90" height="20" as="geometry" />
        </mxCell>
        <mxCell id="7OE0ms06HwQbtnijEo_u-33" value="" style="edgeStyle=none;rounded=0;orthogonalLoop=1;jettySize=auto;html=1;endArrow=none;endFill=0;" edge="1" parent="1" source="7OE0ms06HwQbtnijEo_u-26" target="7OE0ms06HwQbtnijEo_u-14">
          <mxGeometry relative="1" as="geometry">
            <mxPoint x="480" y="540" as="targetPoint" />
          </mxGeometry>
        </mxCell>
        <mxCell id="7OE0ms06HwQbtnijEo_u-26" value="Modifica Documento Fluido" style="ellipse;whiteSpace=wrap;html=1;fillColor=default;" vertex="1" parent="1">
          <mxGeometry x="330" y="580" width="110" height="60" as="geometry" />
        </mxCell>
        <mxCell id="7OE0ms06HwQbtnijEo_u-27" value="" style="edgeStyle=none;rounded=0;orthogonalLoop=1;jettySize=auto;html=1;endArrow=classic;endFill=1;dashed=1;exitX=0.5;exitY=0;exitDx=0;exitDy=0;" edge="1" parent="1" source="7OE0ms06HwQbtnijEo_u-26" target="7OE0ms06HwQbtnijEo_u-39">
          <mxGeometry relative="1" as="geometry">
            <mxPoint x="355" y="390" as="sourcePoint" />
            <mxPoint x="490" y="580" as="targetPoint" />
          </mxGeometry>
        </mxCell>
        <mxCell id="7OE0ms06HwQbtnijEo_u-28" value="&amp;lt;&amp;lt; include &amp;gt;&amp;gt;" style="text;html=1;align=center;verticalAlign=middle;resizable=0;points=[];autosize=1;strokeColor=none;fillColor=none;" vertex="1" parent="1">
          <mxGeometry x="280" y="530" width="90" height="20" as="geometry" />
        </mxCell>
        <mxCell id="7OE0ms06HwQbtnijEo_u-35" value="Memorizzazione Documento Fluido" style="ellipse;whiteSpace=wrap;html=1;fillColor=default;" vertex="1" parent="1">
          <mxGeometry x="330" y="690" width="110" height="60" as="geometry" />
        </mxCell>
        <mxCell id="7OE0ms06HwQbtnijEo_u-37" value="&amp;lt;&amp;lt; include &amp;gt;&amp;gt;" style="text;html=1;align=center;verticalAlign=middle;resizable=0;points=[];autosize=1;strokeColor=none;fillColor=none;" vertex="1" parent="1">
          <mxGeometry x="295" y="650" width="90" height="20" as="geometry" />
        </mxCell>
        <mxCell id="7OE0ms06HwQbtnijEo_u-38" value="" style="edgeStyle=none;rounded=0;orthogonalLoop=1;jettySize=auto;html=1;endArrow=classic;endFill=1;dashed=1;entryX=0.5;entryY=0;entryDx=0;entryDy=0;exitX=0.5;exitY=1;exitDx=0;exitDy=0;" edge="1" parent="1" source="7OE0ms06HwQbtnijEo_u-26" target="7OE0ms06HwQbtnijEo_u-35">
          <mxGeometry relative="1" as="geometry">
            <mxPoint x="340" y="700" as="sourcePoint" />
            <mxPoint x="350" y="570" as="targetPoint" />
          </mxGeometry>
        </mxCell>
        <mxCell id="7OE0ms06HwQbtnijEo_u-41" value="" style="edgeStyle=none;rounded=0;orthogonalLoop=1;jettySize=auto;html=1;endArrow=block;endFill=1;startArrow=none;startFill=0;" edge="1" parent="1" source="7OE0ms06HwQbtnijEo_u-39" target="7OE0ms06HwQbtnijEo_u-21">
          <mxGeometry relative="1" as="geometry">
            <mxPoint x="410" y="520" as="targetPoint" />
          </mxGeometry>
        </mxCell>
        <mxCell id="7OE0ms06HwQbtnijEo_u-47" value="" style="edgeStyle=none;rounded=0;orthogonalLoop=1;jettySize=auto;html=1;startArrow=none;startFill=0;endArrow=block;endFill=1;dashed=1;" edge="1" parent="1" source="7OE0ms06HwQbtnijEo_u-39" target="7OE0ms06HwQbtnijEo_u-46">
          <mxGeometry relative="1" as="geometry" />
        </mxCell>
        <mxCell id="7OE0ms06HwQbtnijEo_u-39" value="Visualizzazione Documento Fluido" style="ellipse;whiteSpace=wrap;html=1;fillColor=default;" vertex="1" parent="1">
          <mxGeometry x="285" y="440" width="110" height="60" as="geometry" />
        </mxCell>
        <mxCell id="7OE0ms06HwQbtnijEo_u-42" value="&amp;lt;&amp;lt; extends &amp;gt;&amp;gt;" style="text;html=1;align=center;verticalAlign=middle;resizable=0;points=[];autosize=1;strokeColor=none;fillColor=none;" vertex="1" parent="1">
          <mxGeometry x="390" y="330" width="90" height="20" as="geometry" />
        </mxCell>
        <mxCell id="7OE0ms06HwQbtnijEo_u-43" value="" style="edgeStyle=none;rounded=0;orthogonalLoop=1;jettySize=auto;html=1;endArrow=none;endFill=0;entryX=0;entryY=0.5;entryDx=0;entryDy=0;" edge="1" parent="1" source="7OE0ms06HwQbtnijEo_u-5" target="7OE0ms06HwQbtnijEo_u-21">
          <mxGeometry relative="1" as="geometry">
            <mxPoint x="110" y="318.8461538461538" as="sourcePoint" />
            <mxPoint x="300.53890121173845" y="304.1893152914048" as="targetPoint" />
          </mxGeometry>
        </mxCell>
        <mxCell id="7OE0ms06HwQbtnijEo_u-44" value="" style="edgeStyle=none;rounded=0;orthogonalLoop=1;jettySize=auto;html=1;endArrow=none;endFill=0;" edge="1" parent="1" source="7OE0ms06HwQbtnijEo_u-5" target="7OE0ms06HwQbtnijEo_u-39">
          <mxGeometry relative="1" as="geometry">
            <mxPoint x="110" y="323.81818181818187" as="sourcePoint" />
            <mxPoint x="370" y="390" as="targetPoint" />
          </mxGeometry>
        </mxCell>
        <mxCell id="7OE0ms06HwQbtnijEo_u-50" value="" style="edgeStyle=none;rounded=0;orthogonalLoop=1;jettySize=auto;html=1;startArrow=none;startFill=0;endArrow=none;endFill=0;" edge="1" parent="1" source="7OE0ms06HwQbtnijEo_u-46" target="7OE0ms06HwQbtnijEo_u-49">
          <mxGeometry relative="1" as="geometry" />
        </mxCell>
        <mxCell id="7OE0ms06HwQbtnijEo_u-46" value="Conversione Documento Fluido" style="ellipse;whiteSpace=wrap;html=1;fillColor=default;" vertex="1" parent="1">
          <mxGeometry x="470" y="360" width="110" height="60" as="geometry" />
        </mxCell>
        <mxCell id="7OE0ms06HwQbtnijEo_u-48" value="&amp;lt;&amp;lt; include &amp;gt;&amp;gt;" style="text;html=1;align=center;verticalAlign=middle;resizable=0;points=[];autosize=1;strokeColor=none;fillColor=none;" vertex="1" parent="1">
          <mxGeometry x="410" y="430" width="90" height="20" as="geometry" />
        </mxCell>
        <mxCell id="7OE0ms06HwQbtnijEo_u-49" value="Document &lt;br&gt;Converter (Sisred)&lt;br&gt;&amp;lt;&amp;lt;service&amp;gt;&amp;gt;" style="shape=umlActor;verticalLabelPosition=bottom;verticalAlign=top;html=1;outlineConnect=0;fillColor=none;" vertex="1" parent="1">
          <mxGeometry x="670" y="560" width="30" height="60" as="geometry" />
        </mxCell>
        <mxCell id="7OE0ms06HwQbtnijEo_u-52" value="Document Management &lt;br&gt;System (Sisred)&lt;br&gt;&amp;lt;&amp;lt;service&amp;gt;&amp;gt;" style="shape=umlActor;verticalLabelPosition=bottom;verticalAlign=top;html=1;outlineConnect=0;fillColor=none;" vertex="1" parent="1">
          <mxGeometry x="670" y="180" width="30" height="60" as="geometry" />
        </mxCell>
      </root>
    </mxGraphModel>
  </diagram>
</mxfile>
